# xmcd
#
# Track frame offsets: 
#        150
#        24947
#        49731
#        67650
#        101155
#        116244
#        133549
#        149025
#        165742
#        181800
#        184030
#        208910
#        227908
#        244461
#        275499
#        278447
#        292957
#        308697
#
# Disc length: 4328 seconds
#
# Revision: 0
# Processed by: cddbd v1.5.2PL0 Copyright (c) Steve Scherf et al.
# Submitted via: ExactAudioCopy v1.0b1
#
DISCID=0c10e612
DTITLE=Howard Tate - Portrait Of Howard
DYEAR=2006
DGENRE=R&B
TTITLE0=I'll Be Home
TTITLE1=Close To You
TTITLE2=Homewrecker
TTITLE3=With You No More
TTITLE4=Gone
TTITLE5=How Do You Think It Feels
TTITLE6=One Hit
TTITLE7=Every Time It Rains
TTITLE8=Louisiana 1927
TTITLE9=Dear Lord (intro)
TTITLE10=Dear Lord
TTITLE11=Hell (Is Just A Place On Earth)
TTITLE12=Left For Dead (On Hold)
TTITLE13=The Lord Is Listenin' To Ya, Hallelujah
TTITLE14=Every Time It Rains (interlude)
TTITLE15=Solid Ground
TTITLE16=I'll Be Home (short version)
TTITLE17=Close To You (short version)
EXTD=
EXTT0=
EXTT1=
EXTT2=
EXTT3=
EXTT4=
EXTT5=
EXTT6=
EXTT7=
EXTT8=
EXTT9=
EXTT10=
EXTT11=
EXTT12=
EXTT13=
EXTT14=
EXTT15=
EXTT16=
EXTT17=
PLAYORDER=
